<?xml version="1.0" encoding="UTF-8" standalone="no"?>
<!-- Created with Inkscape (http://www.inkscape.org/) -->

<svg
   width="512"
   height="512"
   viewBox="0 0 512 512"
   version="1.1"
   id="svg5"
   inkscape:version="1.1.2 (0a00cf5339, 2022-02-04, custom)"
   sodipodi:docname="signup.svg"
   xmlns:inkscape="http://www.inkscape.org/namespaces/inkscape"
   xmlns:sodipodi="http://sodipodi.sourceforge.net/DTD/sodipodi-0.dtd"
   xmlns="http://www.w3.org/2000/svg"
   xmlns:svg="http://www.w3.org/2000/svg">
  <sodipodi:namedview
     id="namedview7"
     pagecolor="#ffffff"
     bordercolor="#666666"
     borderopacity="1.0"
     inkscape:pageshadow="2"
     inkscape:pageopacity="0.0"
     inkscape:pagecheckerboard="0"
     inkscape:document-units="px"
     showgrid="false"
     inkscape:zoom="1.1020922"
     inkscape:cx="407.40694"
     inkscape:cy="305.32836"
     inkscape:window-width="1920"
     inkscape:window-height="991"
     inkscape:window-x="-9"
     inkscape:window-y="-9"
     inkscape:window-maximized="1"
     inkscape:current-layer="layer1" />
  <defs
     id="defs2">
    <inkscape:path-effect
       effect="fillet_chamfer"
       id="path-effect1129"
       is_visible="true"
       lpeversion="1"
       satellites_param="F,0,0,1,0,0.5,0,1 @ F,0,0,1,0,0.5,0,1 @ F,0,0,1,0,0.5,0,1 @ F,0,0,1,0,0.5,0,1 | F,0,0,1,0,0.5,0,1 @ F,0,0,1,0,0.5,0,1 @ F,0,0,1,0,0.5,0,1 @ F,0,0,1,0,0.5,0,1 @ F,0,0,1,0,0.5,0,1 @ F,0,0,1,0,0.5,0,1 @ F,0,0,1,0,0.5,0,1 @ F,0,0,1,0,0.5,0,1 @ F,0,0,1,0,0.5,0,1 @ F,0,0,1,0,0.5,0,1 @ F,0,0,1,0,0.5,0,1 @ F,0,0,1,0,0.5,0,1 | F,0,0,1,0,0.5,0,1 @ F,0,0,1,0,0.5,0,1 @ F,0,0,1,0,0.5,0,1 @ F,0,0,1,0,0.5,0,1 @ F,0,0,1,0,0.5,0,1"
       unit="px"
       method="auto"
       mode="F"
       radius="0.5"
       chamfer_steps="1"
       flexible="false"
       use_knot_distance="true"
       apply_no_radius="true"
       apply_with_radius="true"
       only_selected="false"
       hide_knots="false" />
  </defs>
  <g
     inkscape:label="Layer 1"
     inkscape:groupmode="layer"
     id="layer1">
    <path
       id="rect880"
       style="fill:#2e8bc0;fill-opacity:1;stroke:#2e8bc0;stroke-width:15.089;paint-order:stroke fill markers;stroke-opacity:1;stroke-miterlimit:4;stroke-dasharray:none"
       d="M 73.625 20.210938 C 70.692549 20.210937 68.330078 22.571455 68.330078 25.503906 L 68.330078 90.787109 L 76.390625 90.787109 L 76.390625 28.470703 L 135.37891 28.470703 L 135.37891 20.210938 L 73.625 20.210938 z M 376.62109 20.210938 L 376.62109 28.470703 L 435.60938 28.470703 L 435.60938 90.787109 L 443.66992 90.787109 L 443.66992 25.503906 C 443.66992 22.571455 441.30745 20.210938 438.375 20.210938 L 376.62109 20.210938 z M 68.330078 421.21289 L 68.330078 486.49609 C 68.330078 489.42854 70.692549 491.78906 73.625 491.78906 L 135.37891 491.78906 L 135.37891 483.5293 L 76.390625 483.5293 L 76.390625 421.21289 L 68.330078 421.21289 z M 435.60938 421.21289 L 435.60938 483.5293 L 376.62109 483.5293 L 376.62109 491.78906 L 438.375 491.78906 C 441.30745 491.78906 443.66992 489.42854 443.66992 486.49609 L 443.66992 421.21289 L 435.60938 421.21289 z " />
    <g
       style="fill:#2e8bc0;fill-opacity:1"
       id="g1454"
       transform="matrix(13.505581,0,0,13.505581,93.933028,93.933028)">
      <path
         d="m 15.498734,11.969246 c 1.810987,-0.225 3.245434,-1.659408 3.470495,-3.4703755 0.03404,-0.2739349 0.03404,-0.7237438 1.7e-5,-0.9976048 -0.225,-1.8109868 -1.659408,-3.245434 -3.470376,-3.4704944 -0.273934,-0.034044 -0.723743,-0.034042 -0.997604,-1.69e-5 -1.810987,0.2249998 -3.245434,1.6594072 -3.470495,3.4703751 -0.03404,0.2739349 -0.03404,0.7237438 -1.7e-5,0.9976048 0.225,1.8109867 1.659408,3.2454337 3.470376,3.4704947 0.273934,0.03404 0.723743,0.03404 0.997604,1.7e-5 z M 6,9.5 v -2 A 0.5,0.5 45 0 0 5.5,7 h -1 A 0.5,0.5 135 0 0 4,7.5 v 2 A 0.5,0.5 135 0 1 3.5,10 h -2 A 0.5,0.5 135 0 0 1,10.5 v 1 A 0.5,0.5 45 0 0 1.5,12 h 2 A 0.5,0.5 45 0 1 4,12.5 v 2 A 0.5,0.5 45 0 0 4.5,15 h 1 A 0.5,0.5 135 0 0 6,14.5 v -2 A 0.5,0.5 135 0 1 6.5,12 h 2 A 0.5,0.5 135 0 0 9,11.5 v -1 A 0.5,0.5 45 0 0 8.5,10 h -2 A 0.5,0.5 45 0 1 6,9.5 Z m 8.500257,4.514044 C 11.907698,14.152904 7.6329918,15.321209 7.0634091,17.505473 6.9939289,17.771918 7,18.223858 7,18.5 v 1 A 0.5,0.5 45 0 0 7.5,20 h 15 A 0.5,0.5 135 0 0 23,19.5 v -1 c 0,-0.276142 0.0061,-0.728112 -0.06342,-0.994589 -0.569652,-2.184242 -4.844367,-3.352527 -7.436895,-3.491371 -0.275679,-0.01476 -0.723709,-0.01476 -0.999423,4e-6 z"
         id="path1445"
         style="fill:#2e8bc0;fill-opacity:1"
         inkscape:path-effect="#path-effect1129"
         inkscape:original-d="m 15,12 c 2.21,0 4,-1.79 4,-4 0,-2.21 -1.79,-4 -4,-4 -2.21,0 -4,1.79 -4,4 0,2.21 1.79,4 4,4 z M 6,10 V 7 H 4 v 3 H 1 v 2 h 3 v 3 h 2 v -3 h 3 v -2 z m 9,4 c -2.67,0 -8,1.34 -8,4 v 2 h 16 v -2 c 0,-2.66 -5.33,-4 -8,-4 z" />
    </g>
  </g>
  <style
     type="text/css"
     id="style824">
	.st0{fill:#000000;}
</style>
</svg>
