<?xml version="1.0" encoding="UTF-8" standalone="no"?>
<!-- Created with Inkscape (http://www.inkscape.org/) -->

<svg
   width="512"
   height="512"
   viewBox="0 0 512 512"
   version="1.1"
   id="svg5"
   inkscape:version="1.1.2 (0a00cf5339, 2022-02-04, custom)"
   sodipodi:docname="signup.svg"
   xmlns:inkscape="http://www.inkscape.org/namespaces/inkscape"
   xmlns:sodipodi="http://sodipodi.sourceforge.net/DTD/sodipodi-0.dtd"
   xmlns="http://www.w3.org/2000/svg"
   xmlns:svg="http://www.w3.org/2000/svg">
  <sodipodi:namedview
     id="namedview7"
     pagecolor="#ffffff"
     bordercolor="#666666"
     borderopacity="1.0"
     inkscape:pageshadow="2"
     inkscape:pageopacity="0.0"
     inkscape:pagecheckerboard="0"
     inkscape:document-units="px"
     showgrid="false"
     inkscape:zoom="1.5585937"
     inkscape:cx="377.26316"
     inkscape:cy="213.97494"
     inkscape:window-width="2400"
     inkscape:window-height="1261"
     inkscape:window-x="-2409"
     inkscape:window-y="-9"
     inkscape:window-maximized="1"
     inkscape:current-layer="layer1" />
  <defs
     id="defs2" />
  <g
     inkscape:label="Layer 1"
     inkscape:groupmode="layer"
     id="layer1">
    <path
       id="rect880"
       style="fill:#000000;fill-opacity:1;stroke:#000000;stroke-width:1.789;paint-order:stroke fill markers"
       d="M 73.625 20.210938 C 70.692549 20.210937 68.330078 22.571455 68.330078 25.503906 L 68.330078 90.787109 L 76.390625 90.787109 L 76.390625 28.470703 L 135.37891 28.470703 L 135.37891 20.210938 L 73.625 20.210938 z M 376.62109 20.210938 L 376.62109 28.470703 L 435.60938 28.470703 L 435.60938 90.787109 L 443.66992 90.787109 L 443.66992 25.503906 C 443.66992 22.571455 441.30745 20.210938 438.375 20.210938 L 376.62109 20.210938 z M 68.330078 421.21289 L 68.330078 486.49609 C 68.330078 489.42854 70.692549 491.78906 73.625 491.78906 L 135.37891 491.78906 L 135.37891 483.5293 L 76.390625 483.5293 L 76.390625 421.21289 L 68.330078 421.21289 z M 435.60938 421.21289 L 435.60938 483.5293 L 376.62109 483.5293 L 376.62109 491.78906 L 438.375 491.78906 C 441.30745 491.78906 443.66992 489.42854 443.66992 486.49609 L 443.66992 421.21289 L 435.60938 421.21289 z " />
    <g
       style="fill:#000000"
       id="g1454"
       transform="matrix(13.505581,0,0,13.505581,93.933028,93.933028)">
      <path
         d="m 15,12 c 2.21,0 4,-1.79 4,-4 0,-2.21 -1.79,-4 -4,-4 -2.21,0 -4,1.79 -4,4 0,2.21 1.79,4 4,4 z M 6,10 V 7 H 4 v 3 H 1 v 2 h 3 v 3 h 2 v -3 h 3 v -2 z m 9,4 c -2.67,0 -8,1.34 -8,4 v 2 h 16 v -2 c 0,-2.66 -5.33,-4 -8,-4 z"
         id="path1445" />
    </g>
  </g>
  <style
     type="text/css"
     id="style824">
	.st0{fill:#000000;}
</style>
</svg>
